<svg version="1.1" xmlns="http://www.w3.org/2000/svg" xmlns:xlink="http://www.w3.org/1999/xlink" x="0px" y="0px"
    viewBox="0 0 149.02 130.73" style="
    position: absolute;
    top: 50%;
    left: 50%;
    transform: translate(-50%, -50%);
    width: 100%;
    max-width: 500px;
    height: 100%;" xml:space="preserve">
    <style type="text/css">
        .st1{fill-rule:evenodd;clip-rule:evenodd;fill:#616161;}
        .st2{fill:#616161;stroke:#010101;stroke-width:0.48;stroke-linejoin:round;stroke-miterlimit:1.414;}
        .st3{fill:none;stroke:#616161;stroke-width:0.75;stroke-linejoin:round;stroke-miterlimit:1.414;}
        .st4{fill:#616161;stroke:#616161;stroke-width:0.75;stroke-linejoin:round;stroke-miterlimit:1.414;}
        .st5{fill:#616161;stroke:#616161;stroke-width:0.48;stroke-linejoin:round;stroke-miterlimit:1.414;}
    </style>
    <g id="Layer_1">
        <path class="st1" d="M68.34,75.61l1.5-2.1c-0.2,1.2-0.3,2.4-0.2,3.7c0.2,1.3,0.5,2.5,0.9,3.6c-0.5-1.1-1.1-2.2-1.9-3.1
            c-0.8-1-1.8-1.9-2.8-2.6L68.34,75.61"/>
        <line class="st2" x1="70.72" y1="84.32" x2="70.72" y2="84.32"/>
        <line class="st2" x1="70.72" y1="88.72" x2="70.72" y2="88.72"/>
        <line class="st2" x1="75.12" y1="88.72" x2="75.12" y2="88.72"/>
        <line class="st2" x1="75.12" y1="84.32" x2="75.12" y2="84.33"/>
        <path class="st3" d="M96.64,64.41c0.2-3-0.7-5.8-2.6-8.1c-1.9-2.2-4.7-3.5-7.6-3.7c-2.9-0.3-5.8,0.7-8,2.6
            c-2.2,1.9-3.6,4.7-3.8,7.6"/>
        <line class="st4" x1="94.94" y1="88.11" x2="95.24" y2="84.71"/>
        <line class="st4" x1="96.04" y1="72.81" x2="96.64" y2="64.41"/>
        <line class="st4" x1="73.14" y1="83.81" x2="74.64" y2="62.81"/>
        <path class="st3" d="M94.94,88.11c-0.2,2.6-1.3,5.1-3.1,7c-1.9,1.9-4.4,3-7,3.2s-5.2-0.5-7.4-2c-2.1-1.6-3.6-3.8-4.2-6.4"/>
        <polyline class="st1" points="94.54,71.51 96.54,65.61 97.84,71.71 96.24,69.91 	"/>
        <polyline class="st1" points="75.24,77.31 73.14,83.11 71.94,77.11 73.44,78.91 	"/>
        <line class="st5" x1="68.34" y1="75.61" x2="59.44" y2="53.31"/>
        <path class="st1" d="M95.54,83.51c0.4,0,0.7-0.1,0.9-0.3c0.3-0.3,0.4-0.6,0.4-0.9c0.1-0.4,0-0.8-0.3-1.1c-0.2-0.3-0.5-0.4-0.9-0.5
            c-0.3,0-0.5,0.1-0.7,0.2c-0.2,0.1-0.3,0.3-0.4,0.6c-0.1-0.2-0.2-0.4-0.3-0.5c-0.2-0.1-0.3-0.2-0.5-0.2c-0.2,0-0.4,0-0.6,0.1
            c-0.1,0.1-0.3,0.3-0.4,0.5c-0.1,0.1-0.2,0.3-0.2,0.6s0,0.6,0.2,0.8c0.2,0.3,0.5,0.4,0.8,0.5l0.1-0.5c-0.2,0-0.4-0.1-0.5-0.3
            c-0.1-0.1-0.2-0.3-0.2-0.5s0.1-0.4,0.2-0.5c0.2-0.1,0.3-0.2,0.5-0.1c0.3,0,0.4,0.1,0.6,0.3c0.1,0.1,0.1,0.3,0.1,0.6c0,0,0,0,0,0.1
            h0.4c0-0.1,0-0.2,0-0.3c0-0.3,0.1-0.5,0.3-0.6c0.1-0.2,0.3-0.2,0.6-0.2c0.2,0,0.4,0.1,0.6,0.3c0.1,0.2,0.2,0.4,0.2,0.6
            s-0.1,0.4-0.2,0.5c-0.2,0.2-0.4,0.3-0.7,0.3V83.51"/>
        <path class="st1" d="M95.84,80.21c0.3,0,0.6-0.1,0.9-0.3c0.2-0.2,0.3-0.5,0.4-0.9c0-0.5-0.1-0.9-0.5-1.2c-0.2-0.2-0.6-0.4-0.9-0.4
            c-0.4,0-0.8,0.1-1.1,0.3c-0.2,0.3-0.4,0.6-0.4,0.9c0,0.3,0,0.6,0.2,0.8l-1.1-0.3l0.1-1.7h-0.5l-0.2,2.1l2.2,0.6l0.1-0.5
            c-0.1-0.1-0.2-0.2-0.3-0.3c0-0.2-0.1-0.3-0.1-0.5c0.1-0.3,0.2-0.5,0.3-0.6c0.2-0.2,0.5-0.3,0.8-0.2c0.3,0,0.5,0.1,0.7,0.3
            c0.2,0.2,0.3,0.4,0.2,0.6c0,0.2-0.1,0.4-0.2,0.6c-0.1,0.1-0.4,0.2-0.6,0.2V80.21"/>
        <path class="st1" d="M96.84,74.31l-0.1,2c-0.1,0-0.2-0.1-0.3-0.2c-0.1-0.1-0.2-0.3-0.5-0.6c-0.3-0.4-0.5-0.7-0.7-0.9
            c-0.1-0.2-0.3-0.3-0.5-0.4c-0.1-0.1-0.3-0.1-0.5-0.1c-0.3,0-0.6,0.1-0.8,0.3c-0.3,0.2-0.4,0.5-0.4,0.9c-0.1,0.4,0,0.8,0.2,1
            c0.2,0.3,0.5,0.4,0.9,0.5l0.1-0.5c-0.3-0.1-0.5-0.2-0.6-0.3c-0.2-0.2-0.2-0.4-0.2-0.6c0-0.3,0.1-0.5,0.3-0.6
            c0.1-0.1,0.3-0.2,0.5-0.2c0.2,0,0.4,0.1,0.6,0.3c0.2,0.2,0.5,0.5,0.8,1c0.3,0.3,0.5,0.6,0.6,0.7c0.2,0.2,0.4,0.3,0.6,0.4
            c0.1,0.1,0.2,0.1,0.3,0.1l0.2-2.8H96.84"/>
        <path class="st1" d="M93.94,73.01c-0.1,0-0.3,0-0.3-0.1c-0.1-0.1-0.2-0.2-0.2-0.4c0.1-0.1,0.1-0.2,0.2-0.3c0.1-0.1,0.2-0.1,0.4-0.1
            c0.1,0,0.2,0,0.3,0.1c0.1,0.1,0.1,0.3,0.1,0.4c0,0.1,0,0.2-0.2,0.3C94.14,73.01,94.04,73.11,93.94,73.01 M93.94,73.41
            c0.2,0,0.4-0.1,0.6-0.2c0.1-0.2,0.2-0.4,0.2-0.6s0-0.4-0.2-0.6c-0.1-0.1-0.3-0.2-0.5-0.2c-0.2-0.1-0.4,0-0.6,0.2
            c-0.2,0.1-0.3,0.3-0.3,0.5c0,0.2,0.1,0.4,0.2,0.6C93.54,73.31,93.64,73.31,93.94,73.41"/>
        <polyline class="st1" points="91.14,86.11 91.24,85.61 89.34,85.41 89.44,83.51 88.94,83.41 88.84,85.41 87.44,85.31 87.64,83.01 
            87.14,83.01 86.94,85.81 91.14,86.11 	"/>
        <polyline class="st1" points="91.44,82.61 91.64,79.91 91.14,79.91 90.94,82.01 87.24,81.71 87.24,82.31 91.44,82.61 	"/>
        <path class="st1" d="M91.94,75.91l-4.3-0.3v0.3c0.2,0.1,0.4,0.3,0.5,0.5c0.2,0.2,0.4,0.5,0.5,0.8h0.5c0,0-0.1-0.1-0.1-0.2
            c0-0.1-0.1-0.2-0.1-0.3c-0.1-0.2-0.3-0.4-0.4-0.6l3.4,0.3V75.91"/>
        <path class="st1" d="M89.94,73.81c-0.7,0-1.1-0.1-1.4-0.3c-0.2-0.2-0.3-0.4-0.2-0.6c0-0.3,0.1-0.5,0.3-0.6c0.3-0.1,0.8-0.2,1.5-0.1
            c0.7,0,1.1,0.1,1.3,0.3c0.2,0.2,0.3,0.4,0.3,0.6c0,0.3-0.1,0.5-0.4,0.6C91.14,73.81,90.64,73.91,89.94,73.81 M89.94,74.41
            c0.8,0,1.4-0.1,1.7-0.3c0.4-0.2,0.5-0.5,0.6-0.9c0-0.4-0.1-0.6-0.2-0.8c-0.2-0.2-0.4-0.4-0.7-0.5c-0.3-0.2-0.7-0.2-1.2-0.3
            c-0.4,0-0.8,0-1,0c-0.3,0.1-0.5,0.2-0.7,0.3c-0.1,0.1-0.3,0.2-0.4,0.4c-0.1,0.1-0.2,0.3-0.2,0.5c0,0.4,0.1,0.6,0.2,0.8
            c0.2,0.2,0.4,0.4,0.7,0.5C89.04,74.31,89.44,74.31,89.94,74.41"/>
        <path class="st1" d="M90.24,70.61c-0.7-0.1-1.2-0.2-1.4-0.4c-0.2-0.2-0.3-0.4-0.3-0.6c0-0.3,0.1-0.4,0.4-0.6
            c0.2-0.1,0.7-0.2,1.4-0.1c0.7,0,1.1,0.1,1.4,0.3c0.2,0.2,0.3,0.4,0.3,0.6c0,0.3-0.2,0.5-0.4,0.6
            C91.34,70.61,90.94,70.61,90.24,70.61 M90.14,71.11c0.8,0,1.4,0,1.8-0.3c0.3-0.2,0.5-0.5,0.5-0.9c0-0.3,0-0.6-0.2-0.8
            c-0.2-0.2-0.4-0.4-0.7-0.5c-0.3-0.2-0.7-0.2-1.2-0.3c-0.4,0-0.7,0-1,0.1c-0.2,0-0.4,0.1-0.6,0.2c-0.2,0.1-0.3,0.2-0.5,0.4
            c-0.1,0.1-0.1,0.3-0.1,0.6c-0.1,0.3,0,0.5,0.2,0.7c0.1,0.3,0.3,0.4,0.6,0.5C89.24,71.01,89.64,71.11,90.14,71.11"/>
        <path class="st1" d="M70.64,84.31c-1.4,0.4-2.8,1.1-3.9,2.2c1.1,1.1,2.5,1.9,3.9,2.3c0.4,1.4,1.2,2.8,2.3,3.8c1-1,1.8-2.4,2.2-3.8
            c1.5-0.4,2.8-1.2,3.9-2.3c-1.1-1.1-2.4-1.8-3.9-2.2c-0.4-1.5-1.2-2.8-2.2-3.9C71.84,81.51,71.04,82.81,70.64,84.31"/>
        <path class="st2" d="M76.04,86.51c0-1.7-1.4-3.1-3.1-3.1c-1.7,0-3.1,1.4-3.1,3.1s1.4,3.1,3.1,3.1
            C74.64,89.61,76.04,88.21,76.04,86.51"/>
        <path class="st2" d="M70.74,84.31c-1.5,0.4-2.8,1.2-3.8,2.2"/>
        <path class="st2" d="M70.74,88.71c-1.5-0.4-2.8-1.1-3.8-2.2l0.09-0.09"/>
        <path class="st2" d="M70.74,88.71c0.4,1.5,1.1,2.8,2.2,3.8"/>
        <path class="st2" d="M75.14,88.71c-0.4,1.5-1.2,2.8-2.2,3.8l-0.03-0.03"/>
        <path class="st2" d="M75.14,88.71c1.4-0.4,2.7-1.1,3.8-2.2"/>
        <path class="st2" d="M75.14,84.31c1.4,0.4,2.7,1.2,3.8,2.2l-0.05,0.05"/>
        <path class="st2" d="M75.14,84.31c-0.4-1.4-1.2-2.7-2.2-3.8"/>
        <path class="st2" d="M70.74,84.31c0.4-1.4,1.1-2.7,2.2-3.8l0.02,0.02"/>
        <polyline class="st1" points="27.79,41.56 31.39,41.56 31.39,40.86 28.59,40.86 28.59,35.86 27.79,35.86 27.79,41.56 	"/>
        <path class="st1" d="M35.99,35.86v3.3c0,0.7-0.1,1.2-0.4,1.4c-0.2,0.3-0.6,0.4-1.2,0.4c-0.3,0-0.5,0-0.8-0.2
            c-0.2-0.1-0.3-0.3-0.4-0.5c-0.1-0.2-0.2-0.6-0.2-1.1v-3.3h-0.7v3.3c0,0.6,0,1.1,0.2,1.4c0.1,0.4,0.4,0.6,0.7,0.8
            c0.3,0.2,0.8,0.3,1.3,0.3c0.6,0,1-0.1,1.3-0.3c0.4-0.2,0.6-0.5,0.7-0.8c0.2-0.4,0.2-0.8,0.2-1.4v-3.3H35.99"/>
        <path class="st1" d="M37.69,39.76c0,0.2,0.1,0.3,0.1,0.5c0.1,0.2,0.1,0.3,0.2,0.5c0.2,0.3,0.5,0.5,0.9,0.7c0.3,0.1,0.7,0.2,1.2,0.2
            c0.4,0,0.8-0.1,1.1-0.2c0.4-0.2,0.6-0.4,0.8-0.7c0.2-0.2,0.2-0.5,0.2-0.8s0-0.6-0.2-0.8c-0.2-0.2-0.4-0.4-0.7-0.6
            c-0.3-0.1-0.7-0.2-1.3-0.3c-0.6-0.2-1-0.3-1.1-0.5c-0.2-0.1-0.2-0.3-0.2-0.5s0.1-0.4,0.3-0.6c0.2-0.1,0.5-0.2,1-0.2
            c0.4,0,0.7,0.1,1,0.3c0.2,0.2,0.3,0.4,0.4,0.8l0.7-0.1c0-0.1-0.1-0.3-0.1-0.4c-0.1-0.2-0.1-0.3-0.2-0.5c-0.2-0.2-0.4-0.4-0.8-0.6
            c-0.3-0.1-0.6-0.2-1.1-0.2c-0.3,0-0.7,0.1-1,0.2c-0.3,0.2-0.6,0.3-0.7,0.6c-0.2,0.2-0.3,0.5-0.3,0.8c0,0.3,0.1,0.5,0.2,0.7
            c0.2,0.2,0.4,0.4,0.6,0.5c0.2,0.1,0.6,0.3,1.1,0.4c0.6,0.1,0.9,0.2,1.1,0.3c0.2,0.1,0.4,0.2,0.5,0.3c0.1,0.1,0.1,0.3,0.1,0.5
            c0,0.1,0,0.3-0.1,0.4c-0.2,0.2-0.3,0.3-0.5,0.4c-0.3,0.1-0.5,0.1-0.8,0.1c-0.3,0-0.6,0-0.9-0.1c-0.2-0.2-0.4-0.3-0.5-0.5
            c-0.2-0.2-0.2-0.4-0.3-0.7L37.69,39.76"/>
        <polyline class="st1" points="43.29,41.56 47.49,41.56 47.49,40.86 43.99,40.86 43.99,38.96 47.19,38.96 47.19,38.26 43.99,38.26 
            43.99,36.56 47.39,36.56 47.39,35.86 43.29,35.86 43.29,41.56 	"/>
        <path class="st1" d="M49.29,38.56v-2h1.4c0.4,0,0.6,0,0.7,0.1c0.2,0,0.4,0.1,0.5,0.3c0.1,0.2,0.2,0.4,0.2,0.6
            c0,0.3-0.1,0.6-0.3,0.8c-0.2,0.1-0.6,0.2-1,0.2H49.29 M48.49,41.56h0.8v-2.3h1.4c0.9,0,1.4-0.2,1.7-0.5c0.3-0.3,0.5-0.7,0.5-1.2
            c0-0.3-0.1-0.6-0.2-0.8c-0.1-0.2-0.3-0.4-0.5-0.5c-0.1-0.2-0.4-0.3-0.7-0.3c-0.2-0.1-0.4-0.1-0.8-0.1h-2.2V41.56"/>
        <path class="st1" d="M28.29,46.46v-1.4h1.3c0.3,0,0.6,0.1,0.7,0.2c0.2,0.2,0.2,0.3,0.2,0.5c0,0.2,0,0.3-0.1,0.4
            c-0.1,0.1-0.2,0.2-0.3,0.3c-0.2,0-0.4,0-0.6,0H28.29 M27.69,48.86h0.6v-1.9h0.6c0.2,0,0.3,0,0.3,0c0.1,0.1,0.2,0.1,0.3,0.2
            c0.1,0,0.2,0.1,0.3,0.2c0.1,0.2,0.2,0.4,0.4,0.6l0.6,0.9h0.7l-0.8-1.1c-0.1-0.3-0.3-0.5-0.4-0.6c-0.1-0.1-0.2-0.2-0.4-0.2
            c0.4-0.1,0.7-0.2,0.9-0.4c0.2-0.2,0.3-0.5,0.3-0.8c0-0.2,0-0.4-0.2-0.6c-0.1-0.2-0.2-0.3-0.4-0.4c-0.2-0.1-0.5-0.1-0.9-0.1h-1.9
            V48.86"/>
        <polyline class="st1" points="31.69,47.56 33.29,47.56 33.29,47.06 31.69,47.06 31.69,47.56 	"/>
        <path class="st1" d="M34.29,46.76c0-0.7,0.1-1.2,0.3-1.4c0.1-0.2,0.3-0.3,0.5-0.3c0.3,0,0.5,0.1,0.6,0.3c0.2,0.3,0.3,0.7,0.3,1.4
            s-0.1,1.2-0.3,1.4c-0.1,0.2-0.3,0.4-0.6,0.4c-0.2,0-0.4-0.2-0.6-0.4C34.39,47.96,34.29,47.46,34.29,46.76 M33.79,46.76
            c0,0.8,0.1,1.4,0.4,1.7c0.2,0.3,0.5,0.5,0.9,0.5c0.4,0,0.6-0.1,0.8-0.3c0.2-0.1,0.4-0.4,0.5-0.7s0.1-0.7,0.1-1.2c0-0.4,0-0.7-0.1-1
            c0-0.2-0.1-0.4-0.2-0.6c-0.1-0.2-0.3-0.3-0.5-0.4c-0.1-0.1-0.3-0.2-0.6-0.2c-0.3,0-0.5,0.1-0.7,0.3c-0.2,0.2-0.4,0.4-0.5,0.7
            S33.79,46.26,33.79,46.76"/>
        <path class="st1" d="M37.59,46.76c0-0.7,0.1-1.2,0.3-1.4c0.1-0.2,0.3-0.3,0.5-0.3c0.3,0,0.5,0.1,0.6,0.3c0.2,0.3,0.3,0.7,0.3,1.4
            s-0.1,1.2-0.3,1.4c-0.1,0.2-0.3,0.4-0.6,0.4c-0.2,0-0.4-0.2-0.6-0.4C37.69,47.96,37.59,47.46,37.59,46.76 M37.09,46.76
            c0,0.8,0.1,1.4,0.4,1.7c0.2,0.3,0.5,0.5,0.9,0.5c0.4,0,0.6-0.1,0.8-0.3c0.2-0.1,0.4-0.4,0.5-0.7s0.1-0.7,0.1-1.2c0-0.4,0-0.7-0.1-1
            c0-0.2-0.1-0.4-0.2-0.6c-0.1-0.2-0.3-0.3-0.5-0.4c-0.1-0.1-0.3-0.2-0.6-0.2c-0.3,0-0.5,0.1-0.7,0.3c-0.2,0.2-0.4,0.4-0.5,0.7
            S37.09,46.26,37.09,46.76"/>
        <path class="st1" d="M41.99,47.36h-1.3l1.3-1.9V47.36 M41.99,48.86h0.6v-1h0.5v-0.5h-0.5v-2.7h-0.5l-1.9,2.7v0.5h1.8V48.86"/>
        <polyline class="st1" points="43.99,48.86 44.49,48.86 44.49,48.26 43.99,48.26 43.99,48.86 	"/>
        <path class="st1" d="M45.29,47.76c0,0.4,0.2,0.6,0.4,0.9c0.3,0.2,0.6,0.3,1,0.3c0.5,0,0.8-0.2,1.1-0.5c0.2-0.3,0.3-0.6,0.3-1
            c0-0.4-0.1-0.8-0.4-1c-0.2-0.3-0.5-0.4-0.9-0.4c-0.3,0-0.5,0.1-0.8,0.3l0.2-1.2h1.7v-0.5h-2.1l-0.4,2.2l0.5,0.1
            c0.1-0.2,0.2-0.3,0.3-0.3c0.1-0.1,0.3-0.1,0.5-0.1c0.2,0,0.5,0,0.6,0.2c0.2,0.2,0.3,0.4,0.3,0.7s-0.1,0.6-0.3,0.8s-0.4,0.3-0.6,0.3
            c-0.2,0-0.4-0.1-0.6-0.2c-0.1-0.2-0.2-0.4-0.2-0.6H45.29"/>
        <polyline class="st1" points="50.49,48.86 51.09,48.86 51.09,46.86 53.29,46.86 53.29,48.86 53.79,48.86 53.79,44.66 53.29,44.66 
            53.29,46.36 51.09,46.36 51.09,44.66 50.49,44.66 50.49,48.86 	"/>
        <polyline class="st1" points="54.79,48.86 57.99,48.86 57.99,48.36 55.29,48.36 55.29,46.96 57.69,46.96 57.69,46.46 55.29,46.46 
            55.29,45.16 57.89,45.16 57.89,44.66 54.79,44.66 54.79,48.86 	"/>
        <polyline class="st1" points="58.69,48.86 61.39,48.86 61.39,48.36 59.29,48.36 59.29,44.66 58.69,44.66 58.69,48.86 	"/>
        <polyline class="st1" points="63.19,48.96 63.59,48.96 64.89,44.56 64.39,44.56 63.19,48.96 	"/>
        <path class="st1" d="M66.79,47.76c0,0.3,0.1,0.6,0.4,0.8c0.2,0.3,0.5,0.4,0.9,0.4c0.4,0,0.8-0.1,1-0.4c0.3-0.3,0.4-0.6,0.4-0.9
            c0-0.3,0-0.5-0.2-0.7c-0.1-0.2-0.3-0.3-0.5-0.4c0.1-0.1,0.3-0.2,0.4-0.4c0.1-0.1,0.1-0.3,0.1-0.5c0-0.1,0-0.3-0.1-0.5
            c-0.1-0.2-0.3-0.3-0.5-0.4c-0.2-0.1-0.4-0.2-0.6-0.2c-0.3,0-0.6,0.1-0.8,0.3c-0.3,0.2-0.4,0.5-0.5,0.8l0.5,0.1
            c0.1-0.2,0.2-0.4,0.3-0.5c0.1-0.2,0.3-0.2,0.5-0.2c0.2,0,0.4,0,0.5,0.2c0.1,0.1,0.2,0.2,0.2,0.4c0,0.3-0.1,0.5-0.3,0.6
            c-0.1,0.1-0.3,0.1-0.6,0.1l-0.1,0.5c0.1,0,0.3-0.1,0.4-0.1c0.2,0,0.4,0.1,0.6,0.3c0.1,0.1,0.2,0.3,0.2,0.6c0,0.2-0.1,0.4-0.3,0.6
            c-0.1,0.2-0.3,0.3-0.6,0.3c-0.2,0-0.4-0.1-0.5-0.2c-0.2-0.2-0.3-0.4-0.3-0.7L66.79,47.76"/>
        <path class="st1" d="M70.59,47.66c0-0.3,0.1-0.5,0.2-0.6c0.2-0.2,0.4-0.3,0.6-0.3c0.3,0,0.5,0.1,0.7,0.3c0.1,0.1,0.2,0.4,0.2,0.6
            c0,0.3-0.1,0.5-0.2,0.6c-0.2,0.2-0.4,0.3-0.6,0.3c-0.2,0-0.3-0.1-0.5-0.2c-0.1,0-0.2-0.1-0.3-0.3
            C70.59,47.96,70.59,47.76,70.59,47.66 M70.79,45.66c0-0.2,0-0.3,0.2-0.4c0.1-0.2,0.3-0.2,0.5-0.2c0.2,0,0.3,0,0.4,0.2
            c0.2,0.1,0.2,0.3,0.2,0.5c0,0.1,0,0.3-0.1,0.4c-0.2,0.1-0.3,0.2-0.5,0.2c-0.2,0-0.4-0.1-0.5-0.2
            C70.79,46.06,70.79,45.86,70.79,45.66 M70.89,46.56L70.89,46.56c-0.3,0.1-0.5,0.2-0.6,0.4c-0.2,0.2-0.2,0.4-0.2,0.7
            c0,0.4,0.1,0.7,0.3,0.9c0.3,0.3,0.6,0.4,1.1,0.4c0.4,0,0.7-0.1,1-0.4c0.2-0.2,0.4-0.5,0.4-0.9c0-0.3-0.1-0.5-0.2-0.7
            c-0.2-0.2-0.4-0.3-0.6-0.4c0.2-0.1,0.3-0.2,0.4-0.3c0.1-0.2,0.2-0.3,0.2-0.5c0-0.4-0.1-0.6-0.4-0.8c-0.2-0.2-0.5-0.4-0.9-0.4
            c-0.3,0-0.6,0.2-0.8,0.4c-0.3,0.2-0.4,0.4-0.4,0.7c0,0.2,0.1,0.4,0.2,0.6C70.49,46.36,70.69,46.46,70.89,46.56"/>
        <polyline class="st1" points="73.69,48.86 74.19,48.86 74.19,48.26 73.69,48.26 73.69,48.86 	"/>
        <path class="st1" d="M76.99,48.86v-4.3h-0.4c-0.1,0.2-0.2,0.4-0.4,0.6c-0.2,0.2-0.5,0.4-0.8,0.5v0.5c0.1,0,0.2-0.1,0.3-0.1
            c0.1,0,0.2-0.1,0.3-0.2c0.2-0.1,0.3-0.2,0.5-0.3v3.3H76.99"/>
        <polyline class="st1" points="27.69,54.56 28.29,54.56 28.29,52.56 30.29,52.56 30.29,52.06 28.29,52.06 28.29,50.76 30.59,50.76 
            30.59,50.26 27.69,50.26 27.69,54.56 	"/>
        <path class="st1" d="M33.09,54.56v-4.3h-0.3c-0.1,0.2-0.3,0.4-0.5,0.6c-0.2,0.2-0.5,0.3-0.8,0.5v0.5c0.1,0,0.2-0.1,0.3-0.1
            c0.1-0.1,0.2-0.1,0.3-0.2c0.2-0.1,0.3-0.2,0.5-0.3v3.3H33.09"/>
        <path class="st1" d="M34.99,52.46c0-0.7,0.1-1.2,0.2-1.5c0.2-0.2,0.4-0.3,0.6-0.3c0.2,0,0.4,0.2,0.6,0.4c0.2,0.2,0.3,0.7,0.3,1.4
            s-0.1,1.1-0.3,1.4c-0.2,0.2-0.4,0.3-0.6,0.3c-0.2,0-0.4-0.1-0.6-0.3C34.99,53.56,34.99,53.16,34.99,52.46 M34.39,52.46
            c0,0.8,0.2,1.4,0.4,1.7c0.3,0.3,0.6,0.5,1,0.5c0.3,0,0.6-0.1,0.8-0.3c0.2-0.2,0.3-0.4,0.4-0.7s0.2-0.7,0.2-1.2c0-0.4,0-0.8-0.1-1
            c-0.1-0.3-0.2-0.5-0.3-0.7c-0.1-0.1-0.2-0.3-0.4-0.3c-0.2-0.1-0.4-0.2-0.6-0.2c-0.3,0-0.6,0.1-0.8,0.3c-0.2,0.1-0.3,0.4-0.4,0.7
            C34.49,51.56,34.39,51.96,34.39,52.46"/>
        <path class="st1" d="M38.29,52.46c0-0.7,0.1-1.2,0.2-1.5c0.2-0.2,0.4-0.3,0.6-0.3c0.2,0,0.5,0.2,0.6,0.4c0.2,0.2,0.3,0.7,0.3,1.4
            s-0.1,1.1-0.3,1.4c-0.1,0.2-0.4,0.3-0.6,0.3c-0.2,0-0.4-0.1-0.6-0.3C38.29,53.56,38.29,53.16,38.29,52.46 M37.69,52.46
            c0,0.8,0.2,1.4,0.4,1.7c0.3,0.3,0.6,0.5,1,0.5c0.3,0,0.6-0.1,0.8-0.3c0.2-0.2,0.3-0.4,0.4-0.7s0.2-0.7,0.2-1.2c0-0.4,0-0.8-0.1-1
            c-0.1-0.3-0.2-0.5-0.3-0.7c-0.1-0.1-0.2-0.3-0.4-0.3c-0.2-0.1-0.4-0.2-0.6-0.2c-0.3,0-0.6,0.1-0.8,0.3c-0.2,0.1-0.3,0.4-0.4,0.7
            C37.79,51.56,37.69,51.96,37.69,52.46"/>
        <polyline class="st1" points="42.29,53.86 42.79,53.86 42.79,52.66 43.89,52.66 43.89,52.16 42.79,52.16 42.79,51.06 42.29,51.06 
            42.29,52.16 41.09,52.16 41.09,52.66 42.29,52.66 42.29,53.86 	"/>
    </g>
</svg>